<svg width="5891" height="5203" viewBox="0 0 5891 5203" fill="none" xmlns="http://www.w3.org/2000/svg">
<circle cx="1134.5" cy="1134.5" r="1128" stroke="#90D2F4" stroke-width="13"/>
<circle cx="1134.5" cy="1126.5" r="934" stroke="#90D2F4" stroke-width="13"/>
<circle cx="1134" cy="1090" r="689.5" stroke="#90D2F4" stroke-width="13"/>
<circle cx="1134.5" cy="1092.5" r="519" stroke="#90D2F4" stroke-width="13"/>
<g filter="url(#filter0_b)">
<path d="M892 2750C892 1565.9 1851.9 606 3036 606C4220.1 606 5180 1565.9 5180 2750V5201H892V2750Z" fill="#3D81DC"/>
</g>
<g filter="url(#filter1_b)">
<path d="M892 2971C892 1893.49 1765.49 1020 2843 1020C3920.51 1020 4794 1893.49 4794 2971V5201H892V2971Z" fill="#3D81DC"/>
<path d="M897 2971C897 1896.25 1768.25 1025 2843 1025C3917.75 1025 4789 1896.25 4789 2971V5196H897V2971Z" stroke="#90D2F4" stroke-width="10"/>
</g>
<g filter="url(#filter2_b)">
<path d="M892 3218.5C892 2260.56 1668.56 1484 2626.5 1484C3584.44 1484 4361 2260.56 4361 3218.5V5201H892V3218.5Z" fill="#3D81DC"/>
<path d="M897 3218.5C897 2263.32 1671.32 1489 2626.5 1489C3581.68 1489 4356 2263.32 4356 3218.5V5196H897V3218.5Z" stroke="#90D2F4" stroke-width="10"/>
</g>
<rect x="173" y="864" width="5718" height="4339"/>
<g filter="url(#filter3_d)">
<rect x="438" y="791" width="1915.68" height="902.934" rx="100" fill="url(#paint0_linear)"/>
</g>
<path d="M1015.57 1053.84C1015.57 1045.6 1017.41 1038.24 1021.09 1031.76C1024.85 1025.2 1029.93 1020.12 1036.33 1016.52C1042.81 1012.84 1050.05 1011 1058.05 1011C1067.41 1011 1075.61 1013.4 1082.65 1018.2C1089.69 1023 1094.61 1029.64 1097.41 1038.12H1078.09C1076.17 1034.12 1073.45 1031.12 1069.93 1029.12C1066.49 1027.12 1062.49 1026.12 1057.93 1026.12C1053.05 1026.12 1048.69 1027.28 1044.85 1029.6C1041.09 1031.84 1038.13 1035.04 1035.97 1039.2C1033.89 1043.36 1032.85 1048.24 1032.85 1053.84C1032.85 1059.36 1033.89 1064.24 1035.97 1068.48C1038.13 1072.64 1041.09 1075.88 1044.85 1078.2C1048.69 1080.44 1053.05 1081.56 1057.93 1081.56C1062.49 1081.56 1066.49 1080.56 1069.93 1078.56C1073.45 1076.48 1076.17 1073.44 1078.09 1069.44H1097.41C1094.61 1078 1089.69 1084.68 1082.65 1089.48C1075.69 1094.2 1067.49 1096.56 1058.05 1096.56C1050.05 1096.56 1042.81 1094.76 1036.33 1091.16C1029.93 1087.48 1024.85 1082.4 1021.09 1075.92C1017.41 1069.44 1015.57 1062.08 1015.57 1053.84ZM1141.28 1096.92C1134.88 1096.92 1129.12 1095.52 1124 1092.72C1118.88 1089.84 1114.84 1085.8 1111.88 1080.6C1109 1075.4 1107.56 1069.4 1107.56 1062.6C1107.56 1055.8 1109.04 1049.8 1112 1044.6C1115.04 1039.4 1119.16 1035.4 1124.36 1032.6C1129.56 1029.72 1135.36 1028.28 1141.76 1028.28C1148.16 1028.28 1153.96 1029.72 1159.16 1032.6C1164.36 1035.4 1168.44 1039.4 1171.4 1044.6C1174.44 1049.8 1175.96 1055.8 1175.96 1062.6C1175.96 1069.4 1174.4 1075.4 1171.28 1080.6C1168.24 1085.8 1164.08 1089.84 1158.8 1092.72C1153.6 1095.52 1147.76 1096.92 1141.28 1096.92ZM1141.28 1082.28C1144.32 1082.28 1147.16 1081.56 1149.8 1080.12C1152.52 1078.6 1154.68 1076.36 1156.28 1073.4C1157.88 1070.44 1158.68 1066.84 1158.68 1062.6C1158.68 1056.28 1157 1051.44 1153.64 1048.08C1150.36 1044.64 1146.32 1042.92 1141.52 1042.92C1136.72 1042.92 1132.68 1044.64 1129.4 1048.08C1126.2 1051.44 1124.6 1056.28 1124.6 1062.6C1124.6 1068.92 1126.16 1073.8 1129.28 1077.24C1132.48 1080.6 1136.48 1082.28 1141.28 1082.28ZM1225.13 1028.4C1233.05 1028.4 1239.45 1030.92 1244.33 1035.96C1249.21 1040.92 1251.65 1047.88 1251.65 1056.84V1095.84H1234.85V1059.12C1234.85 1053.84 1233.53 1049.8 1230.89 1047C1228.25 1044.12 1224.65 1042.68 1220.09 1042.68C1215.45 1042.68 1211.77 1044.12 1209.05 1047C1206.41 1049.8 1205.09 1053.84 1205.09 1059.12V1095.84H1188.29V1029.36H1205.09V1037.64C1207.33 1034.76 1210.17 1032.52 1213.61 1030.92C1217.13 1029.24 1220.97 1028.4 1225.13 1028.4ZM1293.06 1096.92C1287.62 1096.92 1282.74 1095.96 1278.42 1094.04C1274.1 1092.04 1270.66 1089.36 1268.1 1086C1265.62 1082.64 1264.26 1078.92 1264.02 1074.84H1280.94C1281.26 1077.4 1282.5 1079.52 1284.66 1081.2C1286.9 1082.88 1289.66 1083.72 1292.94 1083.72C1296.14 1083.72 1298.62 1083.08 1300.38 1081.8C1302.22 1080.52 1303.14 1078.88 1303.14 1076.88C1303.14 1074.72 1302.02 1073.12 1299.78 1072.08C1297.62 1070.96 1294.14 1069.76 1289.34 1068.48C1284.38 1067.28 1280.3 1066.04 1277.1 1064.76C1273.98 1063.48 1271.26 1061.52 1268.94 1058.88C1266.7 1056.24 1265.58 1052.68 1265.58 1048.2C1265.58 1044.52 1266.62 1041.16 1268.7 1038.12C1270.86 1035.08 1273.9 1032.68 1277.82 1030.92C1281.82 1029.16 1286.5 1028.28 1291.86 1028.28C1299.78 1028.28 1306.1 1030.28 1310.82 1034.28C1315.54 1038.2 1318.14 1043.52 1318.62 1050.24H1302.54C1302.3 1047.6 1301.18 1045.52 1299.18 1044C1297.26 1042.4 1294.66 1041.6 1291.38 1041.6C1288.34 1041.6 1285.98 1042.16 1284.3 1043.28C1282.7 1044.4 1281.9 1045.96 1281.9 1047.96C1281.9 1050.2 1283.02 1051.92 1285.26 1053.12C1287.5 1054.24 1290.98 1055.4 1295.7 1056.6C1300.5 1057.8 1304.46 1059.04 1307.58 1060.32C1310.7 1061.6 1313.38 1063.6 1315.62 1066.32C1317.94 1068.96 1319.14 1072.48 1319.22 1076.88C1319.22 1080.72 1318.14 1084.16 1315.98 1087.2C1313.9 1090.24 1310.86 1092.64 1306.86 1094.4C1302.94 1096.08 1298.34 1096.92 1293.06 1096.92ZM1395.77 1029.36V1095.84H1378.85V1087.44C1376.69 1090.32 1373.85 1092.6 1370.33 1094.28C1366.89 1095.88 1363.13 1096.68 1359.05 1096.68C1353.85 1096.68 1349.25 1095.6 1345.25 1093.44C1341.25 1091.2 1338.09 1087.96 1335.77 1083.72C1333.53 1079.4 1332.41 1074.28 1332.41 1068.36V1029.36H1349.21V1065.96C1349.21 1071.24 1350.53 1075.32 1353.17 1078.2C1355.81 1081 1359.41 1082.4 1363.97 1082.4C1368.61 1082.4 1372.25 1081 1374.89 1078.2C1377.53 1075.32 1378.85 1071.24 1378.85 1065.96V1029.36H1395.77ZM1429.15 1007.04V1095.84H1412.35V1007.04H1429.15ZM1465.31 1043.16V1075.32C1465.31 1077.56 1465.83 1079.2 1466.87 1080.24C1467.99 1081.2 1469.83 1081.68 1472.39 1081.68H1480.19V1095.84H1469.63C1455.47 1095.84 1448.39 1088.96 1448.39 1075.2V1043.16H1440.47V1029.36H1448.39V1012.92H1465.31V1029.36H1480.19V1043.16H1465.31ZM1487.95 1062.36C1487.95 1055.64 1489.27 1049.68 1491.91 1044.48C1494.63 1039.28 1498.27 1035.28 1502.83 1032.48C1507.47 1029.68 1512.63 1028.28 1518.31 1028.28C1523.27 1028.28 1527.59 1029.28 1531.27 1031.28C1535.03 1033.28 1538.03 1035.8 1540.27 1038.84V1029.36H1557.19V1095.84H1540.27V1086.12C1538.11 1089.24 1535.11 1091.84 1531.27 1093.92C1527.51 1095.92 1523.15 1096.92 1518.19 1096.92C1512.59 1096.92 1507.47 1095.48 1502.83 1092.6C1498.27 1089.72 1494.63 1085.68 1491.91 1080.48C1489.27 1075.2 1487.95 1069.16 1487.95 1062.36ZM1540.27 1062.6C1540.27 1058.52 1539.47 1055.04 1537.87 1052.16C1536.27 1049.2 1534.11 1046.96 1531.39 1045.44C1528.67 1043.84 1525.75 1043.04 1522.63 1043.04C1519.51 1043.04 1516.63 1043.8 1513.99 1045.32C1511.35 1046.84 1509.19 1049.08 1507.51 1052.04C1505.91 1054.92 1505.11 1058.36 1505.11 1062.36C1505.11 1066.36 1505.91 1069.88 1507.51 1072.92C1509.19 1075.88 1511.35 1078.16 1513.99 1079.76C1516.71 1081.36 1519.59 1082.16 1522.63 1082.16C1525.75 1082.16 1528.67 1081.4 1531.39 1079.88C1534.11 1078.28 1536.27 1076.04 1537.87 1073.16C1539.47 1070.2 1540.27 1066.68 1540.27 1062.6ZM1610.44 1028.4C1618.36 1028.4 1624.76 1030.92 1629.64 1035.96C1634.52 1040.92 1636.96 1047.88 1636.96 1056.84V1095.84H1620.16V1059.12C1620.16 1053.84 1618.84 1049.8 1616.2 1047C1613.56 1044.12 1609.96 1042.68 1605.4 1042.68C1600.76 1042.68 1597.08 1044.12 1594.36 1047C1591.72 1049.8 1590.4 1053.84 1590.4 1059.12V1095.84H1573.6V1029.36H1590.4V1037.64C1592.64 1034.76 1595.48 1032.52 1598.92 1030.92C1602.44 1029.24 1606.28 1028.4 1610.44 1028.4ZM1672.5 1043.16V1075.32C1672.5 1077.56 1673.02 1079.2 1674.06 1080.24C1675.18 1081.2 1677.02 1081.68 1679.58 1081.68H1687.38V1095.84H1676.82C1662.66 1095.84 1655.58 1088.96 1655.58 1075.2V1043.16H1647.66V1029.36H1655.58V1012.92H1672.5V1029.36H1687.38V1043.16H1672.5Z" fill="#3D81DC"/>
<path d="M1043.12 1244.74V1254.04H1013.62V1274.54H1036.62V1283.84H1013.62V1314.24H1002.22V1244.74H1043.12ZM1059.48 1251.84C1057.41 1251.84 1055.68 1251.14 1054.28 1249.74C1052.88 1248.34 1052.18 1246.61 1052.18 1244.54C1052.18 1242.47 1052.88 1240.74 1054.28 1239.34C1055.68 1237.94 1057.41 1237.24 1059.48 1237.24C1061.48 1237.24 1063.18 1237.94 1064.58 1239.34C1065.98 1240.74 1066.68 1242.47 1066.68 1244.54C1066.68 1246.61 1065.98 1248.34 1064.58 1249.74C1063.18 1251.14 1061.48 1251.84 1059.48 1251.84ZM1065.08 1259.14V1314.24H1053.68V1259.14H1065.08ZM1091.45 1267.14C1093.11 1264.34 1095.31 1262.17 1098.05 1260.64C1100.85 1259.04 1104.15 1258.24 1107.95 1258.24V1270.04H1105.05C1100.58 1270.04 1097.18 1271.17 1094.85 1273.44C1092.58 1275.71 1091.45 1279.64 1091.45 1285.24V1314.24H1080.05V1259.14H1091.45V1267.14ZM1138.43 1315.14C1134.09 1315.14 1130.19 1314.37 1126.73 1312.84C1123.33 1311.24 1120.63 1309.11 1118.63 1306.44C1116.63 1303.71 1115.56 1300.67 1115.43 1297.34H1127.23C1127.43 1299.67 1128.53 1301.64 1130.53 1303.24C1132.59 1304.77 1135.16 1305.54 1138.23 1305.54C1141.43 1305.54 1143.89 1304.94 1145.63 1303.74C1147.43 1302.47 1148.33 1300.87 1148.33 1298.94C1148.33 1296.87 1147.33 1295.34 1145.33 1294.34C1143.39 1293.34 1140.29 1292.24 1136.03 1291.04C1131.89 1289.91 1128.53 1288.81 1125.93 1287.74C1123.33 1286.67 1121.06 1285.04 1119.13 1282.84C1117.26 1280.64 1116.33 1277.74 1116.33 1274.14C1116.33 1271.21 1117.19 1268.54 1118.93 1266.14C1120.66 1263.67 1123.13 1261.74 1126.33 1260.34C1129.59 1258.94 1133.33 1258.24 1137.53 1258.24C1143.79 1258.24 1148.83 1259.84 1152.63 1263.04C1156.49 1266.17 1158.56 1270.47 1158.83 1275.94H1147.43C1147.23 1273.47 1146.23 1271.51 1144.43 1270.04C1142.63 1268.57 1140.19 1267.84 1137.13 1267.84C1134.13 1267.84 1131.83 1268.41 1130.23 1269.54C1128.63 1270.67 1127.83 1272.17 1127.83 1274.04C1127.83 1275.51 1128.36 1276.74 1129.43 1277.74C1130.49 1278.74 1131.79 1279.54 1133.33 1280.14C1134.86 1280.67 1137.13 1281.37 1140.13 1282.24C1144.13 1283.31 1147.39 1284.41 1149.93 1285.54C1152.53 1286.61 1154.76 1288.21 1156.63 1290.34C1158.49 1292.47 1159.46 1295.31 1159.53 1298.84C1159.53 1301.97 1158.66 1304.77 1156.93 1307.24C1155.19 1309.71 1152.73 1311.64 1149.53 1313.04C1146.39 1314.44 1142.69 1315.14 1138.43 1315.14ZM1185.15 1268.44V1298.94C1185.15 1301.01 1185.61 1302.51 1186.55 1303.44C1187.55 1304.31 1189.21 1304.74 1191.55 1304.74H1198.55V1314.24H1189.55C1184.41 1314.24 1180.48 1313.04 1177.75 1310.64C1175.01 1308.24 1173.65 1304.34 1173.65 1298.94V1268.44H1167.15V1259.14H1173.65V1245.44H1185.15V1259.14H1198.55V1268.44H1185.15ZM1231.23 1286.64C1231.23 1280.97 1232.36 1276.01 1234.63 1271.74C1236.96 1267.41 1240.16 1264.07 1244.23 1261.74C1248.3 1259.41 1252.96 1258.24 1258.23 1258.24C1264.9 1258.24 1270.4 1259.84 1274.73 1263.04C1279.13 1266.17 1282.1 1270.67 1283.63 1276.54H1271.33C1270.33 1273.81 1268.73 1271.67 1266.53 1270.14C1264.33 1268.61 1261.56 1267.84 1258.23 1267.84C1253.56 1267.84 1249.83 1269.51 1247.03 1272.84C1244.3 1276.11 1242.93 1280.71 1242.93 1286.64C1242.93 1292.57 1244.3 1297.21 1247.03 1300.54C1249.83 1303.87 1253.56 1305.54 1258.23 1305.54C1264.83 1305.54 1269.2 1302.64 1271.33 1296.84H1283.63C1282.03 1302.44 1279.03 1306.91 1274.63 1310.24C1270.23 1313.51 1264.76 1315.14 1258.23 1315.14C1252.96 1315.14 1248.3 1313.97 1244.23 1311.64C1240.16 1309.24 1236.96 1305.91 1234.63 1301.64C1232.36 1297.31 1231.23 1292.31 1231.23 1286.64ZM1318.89 1315.14C1313.69 1315.14 1308.99 1313.97 1304.79 1311.64C1300.59 1309.24 1297.29 1305.91 1294.89 1301.64C1292.49 1297.31 1291.29 1292.31 1291.29 1286.64C1291.29 1281.04 1292.52 1276.07 1294.99 1271.74C1297.46 1267.41 1300.82 1264.07 1305.09 1261.74C1309.36 1259.41 1314.12 1258.24 1319.39 1258.24C1324.66 1258.24 1329.42 1259.41 1333.69 1261.74C1337.96 1264.07 1341.32 1267.41 1343.79 1271.74C1346.26 1276.07 1347.49 1281.04 1347.49 1286.64C1347.49 1292.24 1346.22 1297.21 1343.69 1301.54C1341.16 1305.87 1337.69 1309.24 1333.29 1311.64C1328.96 1313.97 1324.16 1315.14 1318.89 1315.14ZM1318.89 1305.24C1321.82 1305.24 1324.56 1304.54 1327.09 1303.14C1329.69 1301.74 1331.79 1299.64 1333.39 1296.84C1334.99 1294.04 1335.79 1290.64 1335.79 1286.64C1335.79 1282.64 1335.02 1279.27 1333.49 1276.54C1331.96 1273.74 1329.92 1271.64 1327.39 1270.24C1324.86 1268.84 1322.12 1268.14 1319.19 1268.14C1316.26 1268.14 1313.52 1268.84 1310.99 1270.24C1308.52 1271.64 1306.56 1273.74 1305.09 1276.54C1303.62 1279.27 1302.89 1282.64 1302.89 1286.64C1302.89 1292.57 1304.39 1297.17 1307.39 1300.44C1310.46 1303.64 1314.29 1305.24 1318.89 1305.24ZM1386.56 1258.24C1390.89 1258.24 1394.76 1259.14 1398.16 1260.94C1401.63 1262.74 1404.33 1265.41 1406.26 1268.94C1408.19 1272.47 1409.16 1276.74 1409.16 1281.74V1314.24H1397.86V1283.44C1397.86 1278.51 1396.63 1274.74 1394.16 1272.14C1391.69 1269.47 1388.33 1268.14 1384.06 1268.14C1379.79 1268.14 1376.39 1269.47 1373.86 1272.14C1371.39 1274.74 1370.16 1278.51 1370.16 1283.44V1314.24H1358.76V1259.14H1370.16V1265.44C1372.03 1263.17 1374.39 1261.41 1377.26 1260.14C1380.19 1258.87 1383.29 1258.24 1386.56 1258.24ZM1443.7 1315.14C1439.37 1315.14 1435.47 1314.37 1432 1312.84C1428.6 1311.24 1425.9 1309.11 1423.9 1306.44C1421.9 1303.71 1420.83 1300.67 1420.7 1297.34H1432.5C1432.7 1299.67 1433.8 1301.64 1435.8 1303.24C1437.87 1304.77 1440.43 1305.54 1443.5 1305.54C1446.7 1305.54 1449.17 1304.94 1450.9 1303.74C1452.7 1302.47 1453.6 1300.87 1453.6 1298.94C1453.6 1296.87 1452.6 1295.34 1450.6 1294.34C1448.67 1293.34 1445.57 1292.24 1441.3 1291.04C1437.17 1289.91 1433.8 1288.81 1431.2 1287.74C1428.6 1286.67 1426.33 1285.04 1424.4 1282.84C1422.53 1280.64 1421.6 1277.74 1421.6 1274.14C1421.6 1271.21 1422.47 1268.54 1424.2 1266.14C1425.93 1263.67 1428.4 1261.74 1431.6 1260.34C1434.87 1258.94 1438.6 1258.24 1442.8 1258.24C1449.07 1258.24 1454.1 1259.84 1457.9 1263.04C1461.77 1266.17 1463.83 1270.47 1464.1 1275.94H1452.7C1452.5 1273.47 1451.5 1271.51 1449.7 1270.04C1447.9 1268.57 1445.47 1267.84 1442.4 1267.84C1439.4 1267.84 1437.1 1268.41 1435.5 1269.54C1433.9 1270.67 1433.1 1272.17 1433.1 1274.04C1433.1 1275.51 1433.63 1276.74 1434.7 1277.74C1435.77 1278.74 1437.07 1279.54 1438.6 1280.14C1440.13 1280.67 1442.4 1281.37 1445.4 1282.24C1449.4 1283.31 1452.67 1284.41 1455.2 1285.54C1457.8 1286.61 1460.03 1288.21 1461.9 1290.34C1463.77 1292.47 1464.73 1295.31 1464.8 1298.84C1464.8 1301.97 1463.93 1304.77 1462.2 1307.24C1460.47 1309.71 1458 1311.64 1454.8 1313.04C1451.67 1314.44 1447.97 1315.14 1443.7 1315.14ZM1527.02 1259.14V1314.24H1515.62V1307.74C1513.82 1310.01 1511.45 1311.81 1508.52 1313.14C1505.65 1314.41 1502.59 1315.04 1499.32 1315.04C1494.99 1315.04 1491.09 1314.14 1487.62 1312.34C1484.22 1310.54 1481.52 1307.87 1479.52 1304.34C1477.59 1300.81 1476.62 1296.54 1476.62 1291.54V1259.14H1487.92V1289.84C1487.92 1294.77 1489.15 1298.57 1491.62 1301.24C1494.09 1303.84 1497.45 1305.14 1501.72 1305.14C1505.99 1305.14 1509.35 1303.84 1511.82 1301.24C1514.35 1298.57 1515.62 1294.77 1515.62 1289.84V1259.14H1527.02ZM1553.46 1240.24V1314.24H1542.06V1240.24H1553.46ZM1581.73 1268.44V1298.94C1581.73 1301.01 1582.19 1302.51 1583.13 1303.44C1584.13 1304.31 1585.79 1304.74 1588.13 1304.74H1595.13V1314.24H1586.13C1580.99 1314.24 1577.06 1313.04 1574.33 1310.64C1571.59 1308.24 1570.23 1304.34 1570.23 1298.94V1268.44H1563.73V1259.14H1570.23V1245.44H1581.73V1259.14H1595.13V1268.44H1581.73ZM1637.41 1251.84C1635.34 1251.84 1633.61 1251.14 1632.21 1249.74C1630.81 1248.34 1630.11 1246.61 1630.11 1244.54C1630.11 1242.47 1630.81 1240.74 1632.21 1239.34C1633.61 1237.94 1635.34 1237.24 1637.41 1237.24C1639.41 1237.24 1641.11 1237.94 1642.51 1239.34C1643.91 1240.74 1644.61 1242.47 1644.61 1244.54C1644.61 1246.61 1643.91 1248.34 1642.51 1249.74C1641.11 1251.14 1639.41 1251.84 1637.41 1251.84ZM1643.01 1259.14V1314.24H1631.61V1259.14H1643.01ZM1677.98 1315.14C1673.64 1315.14 1669.74 1314.37 1666.28 1312.84C1662.88 1311.24 1660.18 1309.11 1658.18 1306.44C1656.18 1303.71 1655.11 1300.67 1654.98 1297.34H1666.78C1666.98 1299.67 1668.08 1301.64 1670.08 1303.24C1672.14 1304.77 1674.71 1305.54 1677.78 1305.54C1680.98 1305.54 1683.44 1304.94 1685.18 1303.74C1686.98 1302.47 1687.88 1300.87 1687.88 1298.94C1687.88 1296.87 1686.88 1295.34 1684.88 1294.34C1682.94 1293.34 1679.84 1292.24 1675.58 1291.04C1671.44 1289.91 1668.08 1288.81 1665.48 1287.74C1662.88 1286.67 1660.61 1285.04 1658.68 1282.84C1656.81 1280.64 1655.88 1277.74 1655.88 1274.14C1655.88 1271.21 1656.74 1268.54 1658.48 1266.14C1660.21 1263.67 1662.68 1261.74 1665.88 1260.34C1669.14 1258.94 1672.88 1258.24 1677.08 1258.24C1683.34 1258.24 1688.38 1259.84 1692.18 1263.04C1696.04 1266.17 1698.11 1270.47 1698.38 1275.94H1686.98C1686.78 1273.47 1685.78 1271.51 1683.98 1270.04C1682.18 1268.57 1679.74 1267.84 1676.68 1267.84C1673.68 1267.84 1671.38 1268.41 1669.78 1269.54C1668.18 1270.67 1667.38 1272.17 1667.38 1274.04C1667.38 1275.51 1667.91 1276.74 1668.98 1277.74C1670.04 1278.74 1671.34 1279.54 1672.88 1280.14C1674.41 1280.67 1676.68 1281.37 1679.68 1282.24C1683.68 1283.31 1686.94 1284.41 1689.48 1285.54C1692.08 1286.61 1694.31 1288.21 1696.18 1290.34C1698.04 1292.47 1699.01 1295.31 1699.08 1298.84C1699.08 1301.97 1698.21 1304.77 1696.48 1307.24C1694.74 1309.71 1692.28 1311.64 1689.08 1313.04C1685.94 1314.44 1682.24 1315.14 1677.98 1315.14ZM1750.67 1268.44V1298.94C1750.67 1301.01 1751.14 1302.51 1752.07 1303.44C1753.07 1304.31 1754.74 1304.74 1757.07 1304.74H1764.07V1314.24H1755.07C1749.94 1314.24 1746.01 1313.04 1743.27 1310.64C1740.54 1308.24 1739.17 1304.34 1739.17 1298.94V1268.44H1732.67V1259.14H1739.17V1245.44H1750.67V1259.14H1764.07V1268.44H1750.67ZM1798.48 1315.14C1793.28 1315.14 1788.58 1313.97 1784.38 1311.64C1780.18 1309.24 1776.88 1305.91 1774.48 1301.64C1772.08 1297.31 1770.88 1292.31 1770.88 1286.64C1770.88 1281.04 1772.11 1276.07 1774.58 1271.74C1777.05 1267.41 1780.41 1264.07 1784.68 1261.74C1788.95 1259.41 1793.71 1258.24 1798.98 1258.24C1804.25 1258.24 1809.01 1259.41 1813.28 1261.74C1817.55 1264.07 1820.91 1267.41 1823.38 1271.74C1825.85 1276.07 1827.08 1281.04 1827.08 1286.64C1827.08 1292.24 1825.81 1297.21 1823.28 1301.54C1820.75 1305.87 1817.28 1309.24 1812.88 1311.64C1808.55 1313.97 1803.75 1315.14 1798.48 1315.14ZM1798.48 1305.24C1801.41 1305.24 1804.15 1304.54 1806.68 1303.14C1809.28 1301.74 1811.38 1299.64 1812.98 1296.84C1814.58 1294.04 1815.38 1290.64 1815.38 1286.64C1815.38 1282.64 1814.61 1279.27 1813.08 1276.54C1811.55 1273.74 1809.51 1271.64 1806.98 1270.24C1804.45 1268.84 1801.71 1268.14 1798.78 1268.14C1795.85 1268.14 1793.11 1268.84 1790.58 1270.24C1788.11 1271.64 1786.15 1273.74 1784.68 1276.54C1783.21 1279.27 1782.48 1282.64 1782.48 1286.64C1782.48 1292.57 1783.98 1297.17 1786.98 1300.44C1790.05 1303.64 1793.88 1305.24 1798.48 1305.24ZM1851.65 1268.44V1298.94C1851.65 1301.01 1852.12 1302.51 1853.05 1303.44C1854.05 1304.31 1855.72 1304.74 1858.05 1304.74H1865.05V1314.24H1856.05C1850.92 1314.24 1846.98 1313.04 1844.25 1310.64C1841.52 1308.24 1840.15 1304.34 1840.15 1298.94V1268.44H1833.65V1259.14H1840.15V1245.44H1851.65V1259.14H1865.05V1268.44H1851.65ZM1871.76 1286.44C1871.76 1280.91 1872.89 1276.01 1875.16 1271.74C1877.49 1267.47 1880.62 1264.17 1884.56 1261.84C1888.56 1259.44 1892.96 1258.24 1897.76 1258.24C1902.09 1258.24 1905.86 1259.11 1909.06 1260.84C1912.32 1262.51 1914.92 1264.61 1916.86 1267.14V1259.14H1928.36V1314.24H1916.86V1306.04C1914.92 1308.64 1912.29 1310.81 1908.96 1312.54C1905.62 1314.27 1901.82 1315.14 1897.56 1315.14C1892.82 1315.14 1888.49 1313.94 1884.56 1311.54C1880.62 1309.07 1877.49 1305.67 1875.16 1301.34C1872.89 1296.94 1871.76 1291.97 1871.76 1286.44ZM1916.86 1286.64C1916.86 1282.84 1916.06 1279.54 1914.46 1276.74C1912.92 1273.94 1910.89 1271.81 1908.36 1270.34C1905.82 1268.87 1903.09 1268.14 1900.16 1268.14C1897.22 1268.14 1894.49 1268.87 1891.96 1270.34C1889.42 1271.74 1887.36 1273.84 1885.76 1276.64C1884.22 1279.37 1883.46 1282.64 1883.46 1286.44C1883.46 1290.24 1884.22 1293.57 1885.76 1296.44C1887.36 1299.31 1889.42 1301.51 1891.96 1303.04C1894.56 1304.51 1897.29 1305.24 1900.16 1305.24C1903.09 1305.24 1905.82 1304.51 1908.36 1303.04C1910.89 1301.57 1912.92 1299.44 1914.46 1296.64C1916.06 1293.77 1916.86 1290.44 1916.86 1286.64ZM1954.73 1240.24V1314.24H1943.33V1240.24H1954.73ZM1981.1 1240.24V1314.24H1969.7V1240.24H1981.1ZM2045.66 1259.14L2011.86 1340.14H2000.06L2011.26 1313.34L1989.56 1259.14H2002.26L2017.76 1301.14L2033.86 1259.14H2045.66ZM1043.12 1414.74V1424.04H1013.62V1444.54H1036.62V1453.84H1013.62V1484.24H1002.22V1414.74H1043.12ZM1089.78 1484.24L1073.78 1456.44H1065.08V1484.24H1053.68V1414.74H1077.68C1083.01 1414.74 1087.51 1415.67 1091.18 1417.54C1094.91 1419.41 1097.68 1421.91 1099.48 1425.04C1101.35 1428.17 1102.28 1431.67 1102.28 1435.54C1102.28 1440.07 1100.95 1444.21 1098.28 1447.94C1095.68 1451.61 1091.65 1454.11 1086.18 1455.44L1103.38 1484.24H1089.78ZM1065.08 1447.34H1077.68C1081.95 1447.34 1085.15 1446.27 1087.28 1444.14C1089.48 1442.01 1090.58 1439.14 1090.58 1435.54C1090.58 1431.94 1089.51 1429.14 1087.38 1427.14C1085.25 1425.07 1082.01 1424.04 1077.68 1424.04H1065.08V1447.34ZM1128.26 1423.94V1444.34H1152.26V1453.64H1128.26V1474.94H1155.26V1484.24H1116.86V1414.64H1155.26V1423.94H1128.26ZM1180.71 1423.94V1444.34H1204.71V1453.64H1180.71V1474.94H1207.71V1484.24H1169.31V1414.64H1207.71V1423.94H1180.71ZM1270.82 1438.44H1260.62V1484.24H1249.12V1438.44H1242.62V1429.14H1249.12V1425.24C1249.12 1418.91 1250.79 1414.31 1254.12 1411.44C1257.52 1408.51 1262.82 1407.04 1270.02 1407.04V1416.54C1266.56 1416.54 1264.12 1417.21 1262.72 1418.54C1261.32 1419.81 1260.62 1422.04 1260.62 1425.24V1429.14H1270.82V1438.44ZM1304.83 1485.14C1299.63 1485.14 1294.93 1483.97 1290.73 1481.64C1286.53 1479.24 1283.23 1475.91 1280.83 1471.64C1278.43 1467.31 1277.23 1462.31 1277.23 1456.64C1277.23 1451.04 1278.46 1446.07 1280.93 1441.74C1283.39 1437.41 1286.76 1434.07 1291.03 1431.74C1295.29 1429.41 1300.06 1428.24 1305.33 1428.24C1310.59 1428.24 1315.36 1429.41 1319.63 1431.74C1323.89 1434.07 1327.26 1437.41 1329.73 1441.74C1332.19 1446.07 1333.43 1451.04 1333.43 1456.64C1333.43 1462.24 1332.16 1467.21 1329.63 1471.54C1327.09 1475.87 1323.63 1479.24 1319.23 1481.64C1314.89 1483.97 1310.09 1485.14 1304.83 1485.14ZM1304.83 1475.24C1307.76 1475.24 1310.49 1474.54 1313.03 1473.14C1315.63 1471.74 1317.73 1469.64 1319.33 1466.84C1320.93 1464.04 1321.73 1460.64 1321.73 1456.64C1321.73 1452.64 1320.96 1449.27 1319.43 1446.54C1317.89 1443.74 1315.86 1441.64 1313.33 1440.24C1310.79 1438.84 1308.06 1438.14 1305.13 1438.14C1302.19 1438.14 1299.46 1438.84 1296.93 1440.24C1294.46 1441.64 1292.49 1443.74 1291.03 1446.54C1289.56 1449.27 1288.83 1452.64 1288.83 1456.64C1288.83 1462.57 1290.33 1467.17 1293.33 1470.44C1296.39 1473.64 1300.23 1475.24 1304.83 1475.24ZM1356.1 1437.14C1357.76 1434.34 1359.96 1432.17 1362.7 1430.64C1365.5 1429.04 1368.8 1428.24 1372.6 1428.24V1440.04H1369.7C1365.23 1440.04 1361.83 1441.17 1359.5 1443.44C1357.23 1445.71 1356.1 1449.64 1356.1 1455.24V1484.24H1344.7V1429.14H1356.1V1437.14ZM1432.95 1485.14C1427.75 1485.14 1423.05 1483.97 1418.85 1481.64C1414.65 1479.24 1411.35 1475.91 1408.95 1471.64C1406.55 1467.31 1405.35 1462.31 1405.35 1456.64C1405.35 1451.04 1406.59 1446.07 1409.05 1441.74C1411.52 1437.41 1414.89 1434.07 1419.15 1431.74C1423.42 1429.41 1428.19 1428.24 1433.45 1428.24C1438.72 1428.24 1443.49 1429.41 1447.75 1431.74C1452.02 1434.07 1455.39 1437.41 1457.85 1441.74C1460.32 1446.07 1461.55 1451.04 1461.55 1456.64C1461.55 1462.24 1460.29 1467.21 1457.75 1471.54C1455.22 1475.87 1451.75 1479.24 1447.35 1481.64C1443.02 1483.97 1438.22 1485.14 1432.95 1485.14ZM1432.95 1475.24C1435.89 1475.24 1438.62 1474.54 1441.15 1473.14C1443.75 1471.74 1445.85 1469.64 1447.45 1466.84C1449.05 1464.04 1449.85 1460.64 1449.85 1456.64C1449.85 1452.64 1449.09 1449.27 1447.55 1446.54C1446.02 1443.74 1443.99 1441.64 1441.45 1440.24C1438.92 1438.84 1436.19 1438.14 1433.25 1438.14C1430.32 1438.14 1427.59 1438.84 1425.05 1440.24C1422.59 1441.64 1420.62 1443.74 1419.15 1446.54C1417.69 1449.27 1416.95 1452.64 1416.95 1456.64C1416.95 1462.57 1418.45 1467.17 1421.45 1470.44C1424.52 1473.64 1428.35 1475.24 1432.95 1475.24ZM1522.72 1429.14V1484.24H1511.32V1477.74C1509.52 1480.01 1507.16 1481.81 1504.22 1483.14C1501.36 1484.41 1498.29 1485.04 1495.02 1485.04C1490.69 1485.04 1486.79 1484.14 1483.32 1482.34C1479.92 1480.54 1477.22 1477.87 1475.22 1474.34C1473.29 1470.81 1472.32 1466.54 1472.32 1461.54V1429.14H1483.62V1459.84C1483.62 1464.77 1484.86 1468.57 1487.32 1471.24C1489.79 1473.84 1493.16 1475.14 1497.42 1475.14C1501.69 1475.14 1505.06 1473.84 1507.52 1471.24C1510.06 1468.57 1511.32 1464.77 1511.32 1459.84V1429.14H1522.72ZM1549.16 1437.14C1550.83 1434.34 1553.03 1432.17 1555.76 1430.64C1558.56 1429.04 1561.86 1428.24 1565.66 1428.24V1440.04H1562.76C1558.3 1440.04 1554.9 1441.17 1552.56 1443.44C1550.3 1445.71 1549.16 1449.64 1549.16 1455.24V1484.24H1537.76V1429.14H1549.16V1437.14ZM1633.82 1484.94C1627.35 1484.94 1621.39 1483.44 1615.92 1480.44C1610.52 1477.37 1606.22 1473.14 1603.02 1467.74C1599.89 1462.27 1598.32 1456.14 1598.32 1449.34C1598.32 1442.54 1599.89 1436.44 1603.02 1431.04C1606.22 1425.64 1610.52 1421.44 1615.92 1418.44C1621.39 1415.37 1627.35 1413.84 1633.82 1413.84C1640.35 1413.84 1646.32 1415.37 1651.72 1418.44C1657.19 1421.44 1661.49 1425.64 1664.62 1431.04C1667.75 1436.44 1669.32 1442.54 1669.32 1449.34C1669.32 1456.14 1667.75 1462.27 1664.62 1467.74C1661.49 1473.14 1657.19 1477.37 1651.72 1480.44C1646.32 1483.44 1640.35 1484.94 1633.82 1484.94ZM1633.82 1475.04C1638.42 1475.04 1642.52 1474.01 1646.12 1471.94C1649.72 1469.81 1652.52 1466.81 1654.52 1462.94C1656.59 1459.01 1657.62 1454.47 1657.62 1449.34C1657.62 1444.21 1656.59 1439.71 1654.52 1435.84C1652.52 1431.97 1649.72 1429.01 1646.12 1426.94C1642.52 1424.87 1638.42 1423.84 1633.82 1423.84C1629.22 1423.84 1625.12 1424.87 1621.52 1426.94C1617.92 1429.01 1615.09 1431.97 1613.02 1435.84C1611.02 1439.71 1610.02 1444.21 1610.02 1449.34C1610.02 1454.47 1611.02 1459.01 1613.02 1462.94C1615.09 1466.81 1617.92 1469.81 1621.52 1471.94C1625.12 1474.01 1629.22 1475.04 1633.82 1475.04ZM1730.44 1429.14V1484.24H1719.04V1477.74C1717.24 1480.01 1714.87 1481.81 1711.94 1483.14C1709.07 1484.41 1706 1485.04 1702.74 1485.04C1698.4 1485.04 1694.5 1484.14 1691.04 1482.34C1687.64 1480.54 1684.94 1477.87 1682.94 1474.34C1681 1470.81 1680.04 1466.54 1680.04 1461.54V1429.14H1691.34V1459.84C1691.34 1464.77 1692.57 1468.57 1695.04 1471.24C1697.5 1473.84 1700.87 1475.14 1705.14 1475.14C1709.4 1475.14 1712.77 1473.84 1715.24 1471.24C1717.77 1468.57 1719.04 1464.77 1719.04 1459.84V1429.14H1730.44ZM1758.78 1438.44V1468.94C1758.78 1471.01 1759.24 1472.51 1760.18 1473.44C1761.18 1474.31 1762.84 1474.74 1765.18 1474.74H1772.18V1484.24H1763.18C1758.04 1484.24 1754.11 1483.04 1751.38 1480.64C1748.64 1478.24 1747.28 1474.34 1747.28 1468.94V1438.44H1740.78V1429.14H1747.28V1415.44H1758.78V1429.14H1772.18V1438.44H1758.78ZM1794.08 1437.24C1796.02 1434.71 1798.65 1432.57 1801.98 1430.84C1805.32 1429.11 1809.08 1428.24 1813.28 1428.24C1818.08 1428.24 1822.45 1429.44 1826.38 1431.84C1830.39 1434.17 1833.52 1437.47 1835.78 1441.74C1838.05 1446.01 1839.19 1450.91 1839.19 1456.44C1839.19 1461.97 1838.05 1466.94 1835.78 1471.34C1833.52 1475.67 1830.39 1479.07 1826.38 1481.54C1822.45 1483.94 1818.08 1485.14 1813.28 1485.14C1809.08 1485.14 1805.35 1484.31 1802.08 1482.64C1798.82 1480.91 1796.15 1478.77 1794.08 1476.24V1510.44H1782.68V1429.14H1794.08V1437.24ZM1827.59 1456.44C1827.59 1452.64 1826.79 1449.37 1825.18 1446.64C1823.65 1443.84 1821.59 1441.74 1818.98 1440.34C1816.45 1438.87 1813.72 1438.14 1810.78 1438.14C1807.92 1438.14 1805.18 1438.87 1802.58 1440.34C1800.05 1441.81 1797.98 1443.94 1796.38 1446.74C1794.85 1449.54 1794.08 1452.84 1794.08 1456.64C1794.08 1460.44 1794.85 1463.77 1796.38 1466.64C1797.98 1469.44 1800.05 1471.57 1802.58 1473.04C1805.18 1474.51 1807.92 1475.24 1810.78 1475.24C1813.72 1475.24 1816.45 1474.51 1818.98 1473.04C1821.59 1471.51 1823.65 1469.31 1825.18 1466.44C1826.79 1463.57 1827.59 1460.24 1827.59 1456.44ZM1846.66 1456.44C1846.66 1450.91 1847.79 1446.01 1850.06 1441.74C1852.39 1437.47 1855.53 1434.17 1859.46 1431.84C1863.46 1429.44 1867.86 1428.24 1872.66 1428.24C1876.99 1428.24 1880.76 1429.11 1883.96 1430.84C1887.23 1432.51 1889.83 1434.61 1891.76 1437.14V1429.14H1903.26V1484.24H1891.76V1476.04C1889.83 1478.64 1887.19 1480.81 1883.86 1482.54C1880.53 1484.27 1876.73 1485.14 1872.46 1485.14C1867.73 1485.14 1863.39 1483.94 1859.46 1481.54C1855.53 1479.07 1852.39 1475.67 1850.06 1471.34C1847.79 1466.94 1846.66 1461.97 1846.66 1456.44ZM1891.76 1456.64C1891.76 1452.84 1890.96 1449.54 1889.36 1446.74C1887.83 1443.94 1885.79 1441.81 1883.26 1440.34C1880.73 1438.87 1877.99 1438.14 1875.06 1438.14C1872.13 1438.14 1869.39 1438.87 1866.86 1440.34C1864.33 1441.74 1862.26 1443.84 1860.66 1446.64C1859.13 1449.37 1858.36 1452.64 1858.36 1456.44C1858.36 1460.24 1859.13 1463.57 1860.66 1466.44C1862.26 1469.31 1864.33 1471.51 1866.86 1473.04C1869.46 1474.51 1872.19 1475.24 1875.06 1475.24C1877.99 1475.24 1880.73 1474.51 1883.26 1473.04C1885.79 1471.57 1887.83 1469.44 1889.36 1466.64C1890.96 1463.77 1891.76 1460.44 1891.76 1456.64ZM1931.53 1438.44V1468.94C1931.53 1471.01 1932 1472.51 1932.93 1473.44C1933.93 1474.31 1935.6 1474.74 1937.93 1474.74H1944.93V1484.24H1935.93C1930.8 1484.24 1926.87 1483.04 1924.13 1480.64C1921.4 1478.24 1920.03 1474.34 1920.03 1468.94V1438.44H1913.53V1429.14H1920.03V1415.44H1931.53V1429.14H1944.93V1438.44H1931.53ZM1961.24 1421.84C1959.17 1421.84 1957.44 1421.14 1956.04 1419.74C1954.64 1418.34 1953.94 1416.61 1953.94 1414.54C1953.94 1412.47 1954.64 1410.74 1956.04 1409.34C1957.44 1407.94 1959.17 1407.24 1961.24 1407.24C1963.24 1407.24 1964.94 1407.94 1966.34 1409.34C1967.74 1410.74 1968.44 1412.47 1968.44 1414.54C1968.44 1416.61 1967.74 1418.34 1966.34 1419.74C1964.94 1421.14 1963.24 1421.84 1961.24 1421.84ZM1966.84 1429.14V1484.24H1955.44V1429.14H1966.84ZM2032.31 1455.34C2032.31 1457.41 2032.17 1459.27 2031.91 1460.94H1989.81C1990.14 1465.34 1991.77 1468.87 1994.71 1471.54C1997.64 1474.21 2001.24 1475.54 2005.51 1475.54C2011.64 1475.54 2015.97 1472.97 2018.51 1467.84H2030.81C2029.14 1472.91 2026.11 1477.07 2021.71 1480.34C2017.37 1483.54 2011.97 1485.14 2005.51 1485.14C2000.24 1485.14 1995.51 1483.97 1991.31 1481.64C1987.17 1479.24 1983.91 1475.91 1981.51 1471.64C1979.17 1467.31 1978.01 1462.31 1978.01 1456.64C1978.01 1450.97 1979.14 1446.01 1981.41 1441.74C1983.74 1437.41 1986.97 1434.07 1991.11 1431.74C1995.31 1429.41 2000.11 1428.24 2005.51 1428.24C2010.71 1428.24 2015.34 1429.37 2019.41 1431.64C2023.47 1433.91 2026.64 1437.11 2028.91 1441.24C2031.17 1445.31 2032.31 1450.01 2032.31 1455.34ZM2020.41 1451.74C2020.34 1447.54 2018.84 1444.17 2015.91 1441.64C2012.97 1439.11 2009.34 1437.84 2005.01 1437.84C2001.07 1437.84 1997.71 1439.11 1994.91 1441.64C1992.11 1444.11 1990.44 1447.47 1989.91 1451.74H2020.41ZM2071.32 1428.24C2075.66 1428.24 2079.52 1429.14 2082.92 1430.94C2086.39 1432.74 2089.09 1435.41 2091.02 1438.94C2092.96 1442.47 2093.92 1446.74 2093.92 1451.74V1484.24H2082.62V1453.44C2082.62 1448.51 2081.39 1444.74 2078.92 1442.14C2076.46 1439.47 2073.09 1438.14 2068.82 1438.14C2064.56 1438.14 2061.16 1439.47 2058.62 1442.14C2056.16 1444.74 2054.92 1448.51 2054.92 1453.44V1484.24H2043.52V1429.14H2054.92V1435.44C2056.79 1433.17 2059.16 1431.41 2062.02 1430.14C2064.96 1428.87 2068.06 1428.24 2071.32 1428.24ZM2121.77 1438.44V1468.94C2121.77 1471.01 2122.23 1472.51 2123.17 1473.44C2124.17 1474.31 2125.83 1474.74 2128.17 1474.74H2135.17V1484.24H2126.17C2121.03 1484.24 2117.1 1483.04 2114.37 1480.64C2111.63 1478.24 2110.27 1474.34 2110.27 1468.94V1438.44H2103.77V1429.14H2110.27V1415.44H2121.77V1429.14H2135.17V1438.44H2121.77ZM2165.67 1485.14C2161.34 1485.14 2157.44 1484.37 2153.97 1482.84C2150.57 1481.24 2147.87 1479.11 2145.87 1476.44C2143.87 1473.71 2142.81 1470.67 2142.67 1467.34H2154.47C2154.67 1469.67 2155.77 1471.64 2157.77 1473.24C2159.84 1474.77 2162.41 1475.54 2165.47 1475.54C2168.67 1475.54 2171.14 1474.94 2172.87 1473.74C2174.67 1472.47 2175.57 1470.87 2175.57 1468.94C2175.57 1466.87 2174.57 1465.34 2172.57 1464.34C2170.64 1463.34 2167.54 1462.24 2163.27 1461.04C2159.14 1459.91 2155.77 1458.81 2153.17 1457.74C2150.57 1456.67 2148.31 1455.04 2146.37 1452.84C2144.51 1450.64 2143.57 1447.74 2143.57 1444.14C2143.57 1441.21 2144.44 1438.54 2146.17 1436.14C2147.91 1433.67 2150.37 1431.74 2153.57 1430.34C2156.84 1428.94 2160.57 1428.24 2164.77 1428.24C2171.04 1428.24 2176.07 1429.84 2179.87 1433.04C2183.74 1436.17 2185.81 1440.47 2186.07 1445.94H2174.67C2174.47 1443.47 2173.47 1441.51 2171.67 1440.04C2169.87 1438.57 2167.44 1437.84 2164.37 1437.84C2161.37 1437.84 2159.07 1438.41 2157.47 1439.54C2155.87 1440.67 2155.07 1442.17 2155.07 1444.04C2155.07 1445.51 2155.61 1446.74 2156.67 1447.74C2157.74 1448.74 2159.04 1449.54 2160.57 1450.14C2162.11 1450.67 2164.37 1451.37 2167.37 1452.24C2171.37 1453.31 2174.64 1454.41 2177.17 1455.54C2179.77 1456.61 2182.01 1458.21 2183.87 1460.34C2185.74 1462.47 2186.71 1465.31 2186.77 1468.84C2186.77 1471.97 2185.91 1474.77 2184.17 1477.24C2182.44 1479.71 2179.97 1481.64 2176.77 1483.04C2173.64 1484.44 2169.94 1485.14 2165.67 1485.14Z" fill="#777777"/>
<rect x="600.004" y="1001.68" width="269" height="210" rx="20" fill="#3D81DC"/>
<g clip-path="url(#clip0)">
<path d="M722.808 1048.29L722.811 1048.29C729.944 1048.25 736.94 1050.02 742.986 1053.41C749.032 1056.8 753.876 1061.65 756.962 1067.39C760.048 1073.14 761.253 1079.55 760.44 1085.88C759.627 1092.22 756.83 1098.22 752.364 1103.19L751.161 1104.53L752.882 1104C757.32 1102.64 761.977 1101.94 766.667 1101.94C790.565 1101.94 810.025 1119.48 810.025 1140.81C810.025 1162.14 790.565 1179.69 766.666 1179.69C742.768 1179.69 723.308 1162.14 723.308 1140.81C723.313 1132.04 726.647 1123.53 732.769 1116.68C732.783 1116.67 732.797 1116.65 732.81 1116.63L732.062 1115.97C732.05 1115.98 732.038 1116 732.026 1116.01C731.927 1116.12 731.817 1116.23 731.693 1116.35L731.654 1116.38C731.57 1116.46 731.481 1116.55 731.392 1116.64C728.741 1116.17 726.035 1115.7 722.808 1115.7C698.646 1115.7 678.753 1133.32 678.452 1155.08H668.487C668.711 1135.34 682.197 1118.03 701.591 1111.26L702.632 1110.9L701.673 1110.35C691.405 1104.53 684.931 1093.86 684.931 1082.24C684.931 1063.37 701.651 1048.29 722.808 1048.29ZM741.037 1109.56L740.49 1108.72C740.331 1108.83 740.172 1108.93 740.013 1109.04L740.566 1109.87L740.568 1109.87L741.034 1109.56L741.037 1109.56ZM761.518 1144.14L761.684 1143.99V1143.76V1121.62H771.649V1147.48L759.539 1158.35L752.613 1152.13L761.518 1144.14ZM750.719 1081.75C750.719 1067.64 738.382 1056.64 722.808 1056.64C707.233 1056.64 694.896 1067.64 694.896 1081.75C694.896 1095.85 707.233 1106.86 722.808 1106.86C738.382 1106.86 750.719 1095.85 750.719 1081.75ZM800.06 1140.81C800.06 1124.24 784.982 1110.78 766.666 1110.78C748.351 1110.78 733.272 1124.24 733.272 1140.81C733.272 1157.38 748.351 1170.84 766.666 1170.84C784.982 1170.84 800.06 1157.38 800.06 1140.81Z" fill="white" stroke="white"/>
</g>
<g filter="url(#filter4_d)">
<rect x="3793" y="1462" width="1650" height="480" rx="80" fill="url(#paint1_linear)"/>
<path d="M4334.64 1726.09C4342.32 1719.69 4348.44 1714.37 4353 1710.13C4357.56 1705.81 4361.36 1701.33 4364.4 1696.69C4367.44 1692.05 4368.96 1687.49 4368.96 1683.01C4368.96 1678.93 4368 1675.73 4366.08 1673.41C4364.16 1671.09 4361.2 1669.93 4357.2 1669.93C4353.2 1669.93 4350.12 1671.29 4347.96 1674.01C4345.8 1676.65 4344.68 1680.29 4344.6 1684.93H4328.28C4328.6 1675.33 4331.44 1668.05 4336.8 1663.09C4342.24 1658.13 4349.12 1655.65 4357.44 1655.65C4366.56 1655.65 4373.56 1658.09 4378.44 1662.97C4383.32 1667.77 4385.76 1674.13 4385.76 1682.05C4385.76 1688.29 4384.08 1694.25 4380.72 1699.93C4377.36 1705.61 4373.52 1710.57 4369.2 1714.81C4364.88 1718.97 4359.24 1724.01 4352.28 1729.93H4387.68V1743.85H4328.4V1731.37L4334.64 1726.09ZM4397.55 1728.01V1714.81L4436.79 1658.65H4456.35V1713.37H4466.91V1728.01H4456.35V1745.05H4439.55V1728.01H4397.55ZM4440.63 1676.65L4416.03 1713.37H4440.63V1676.65ZM4524.52 1631.41L4492.12 1766.77H4475.68L4508.08 1631.41H4524.52ZM4591.64 1670.29L4559.72 1745.05H4542.68L4574.84 1672.21H4533.8V1657.81H4591.64V1670.29ZM4628.14 1703.05C4628.14 1694.81 4629.98 1687.45 4633.66 1680.97C4637.42 1674.41 4642.5 1669.33 4648.9 1665.73C4655.38 1662.05 4662.62 1660.21 4670.62 1660.21C4679.98 1660.21 4688.18 1662.61 4695.22 1667.41C4702.26 1672.21 4707.18 1678.85 4709.98 1687.33H4690.66C4688.74 1683.33 4686.02 1680.33 4682.5 1678.33C4679.06 1676.33 4675.06 1675.33 4670.5 1675.33C4665.62 1675.33 4661.26 1676.49 4657.42 1678.81C4653.66 1681.05 4650.7 1684.25 4648.54 1688.41C4646.46 1692.57 4645.42 1697.45 4645.42 1703.05C4645.42 1708.57 4646.46 1713.45 4648.54 1717.69C4650.7 1721.85 4653.66 1725.09 4657.42 1727.41C4661.26 1729.65 4665.62 1730.77 4670.5 1730.77C4675.06 1730.77 4679.06 1729.77 4682.5 1727.77C4686.02 1725.69 4688.74 1722.65 4690.66 1718.65H4709.98C4707.18 1727.21 4702.26 1733.89 4695.22 1738.69C4688.26 1743.41 4680.06 1745.77 4670.62 1745.77C4662.62 1745.77 4655.38 1743.97 4648.9 1740.37C4642.5 1736.69 4637.42 1731.61 4633.66 1725.13C4629.98 1718.65 4628.14 1711.29 4628.14 1703.05ZM4720.01 1711.57C4720.01 1704.85 4721.33 1698.89 4723.97 1693.69C4726.69 1688.49 4730.33 1684.49 4734.89 1681.69C4739.53 1678.89 4744.69 1677.49 4750.37 1677.49C4755.33 1677.49 4759.65 1678.49 4763.33 1680.49C4767.09 1682.49 4770.09 1685.01 4772.33 1688.05V1678.57H4789.25V1745.05H4772.33V1735.33C4770.17 1738.45 4767.17 1741.05 4763.33 1743.13C4759.57 1745.13 4755.21 1746.13 4750.25 1746.13C4744.65 1746.13 4739.53 1744.69 4734.89 1741.81C4730.33 1738.93 4726.69 1734.89 4723.97 1729.69C4721.33 1724.41 4720.01 1718.37 4720.01 1711.57ZM4772.33 1711.81C4772.33 1707.73 4771.53 1704.25 4769.93 1701.37C4768.33 1698.41 4766.17 1696.17 4763.45 1694.65C4760.73 1693.05 4757.81 1692.25 4754.69 1692.25C4751.57 1692.25 4748.69 1693.01 4746.05 1694.53C4743.41 1696.05 4741.25 1698.29 4739.57 1701.25C4737.97 1704.13 4737.17 1707.57 4737.17 1711.57C4737.17 1715.57 4737.97 1719.09 4739.57 1722.13C4741.25 1725.09 4743.41 1727.37 4746.05 1728.97C4748.77 1730.57 4751.65 1731.37 4754.69 1731.37C4757.81 1731.37 4760.73 1730.61 4763.45 1729.09C4766.17 1727.49 4768.33 1725.25 4769.93 1722.37C4771.53 1719.41 4772.33 1715.89 4772.33 1711.81ZM4822.46 1656.25V1745.05H4805.66V1656.25H4822.46ZM4855.85 1656.25V1745.05H4839.05V1656.25H4855.85ZM4896.97 1703.05C4896.97 1694.81 4898.81 1687.45 4902.49 1680.97C4906.25 1674.41 4911.33 1669.33 4917.73 1665.73C4924.21 1662.05 4931.45 1660.21 4939.45 1660.21C4948.81 1660.21 4957.01 1662.61 4964.05 1667.41C4971.09 1672.21 4976.01 1678.85 4978.81 1687.33H4959.49C4957.57 1683.33 4954.85 1680.33 4951.33 1678.33C4947.89 1676.33 4943.89 1675.33 4939.33 1675.33C4934.45 1675.33 4930.09 1676.49 4926.25 1678.81C4922.49 1681.05 4919.53 1684.25 4917.37 1688.41C4915.29 1692.57 4914.25 1697.45 4914.25 1703.05C4914.25 1708.57 4915.29 1713.45 4917.37 1717.69C4919.53 1721.85 4922.49 1725.09 4926.25 1727.41C4930.09 1729.65 4934.45 1730.77 4939.33 1730.77C4943.89 1730.77 4947.89 1729.77 4951.33 1727.77C4954.85 1725.69 4957.57 1722.65 4959.49 1718.65H4978.81C4976.01 1727.21 4971.09 1733.89 4964.05 1738.69C4957.09 1743.41 4948.89 1745.77 4939.45 1745.77C4931.45 1745.77 4924.21 1743.97 4917.73 1740.37C4911.33 1736.69 4906.25 1731.61 4902.49 1725.13C4898.81 1718.65 4896.97 1711.29 4896.97 1703.05ZM5054.96 1710.37C5054.96 1712.77 5054.8 1714.93 5054.48 1716.85H5005.88C5006.28 1721.65 5007.96 1725.41 5010.92 1728.13C5013.88 1730.85 5017.52 1732.21 5021.84 1732.21C5028.08 1732.21 5032.52 1729.53 5035.16 1724.17H5053.28C5051.36 1730.57 5047.68 1735.85 5042.24 1740.01C5036.8 1744.09 5030.12 1746.13 5022.2 1746.13C5015.8 1746.13 5010.04 1744.73 5004.92 1741.93C4999.88 1739.05 4995.92 1735.01 4993.04 1729.81C4990.24 1724.61 4988.83 1718.61 4988.83 1711.81C4988.83 1704.93 4990.24 1698.89 4993.04 1693.69C4995.84 1688.49 4999.76 1684.49 5004.8 1681.69C5009.84 1678.89 5015.64 1677.49 5022.2 1677.49C5028.52 1677.49 5034.16 1678.85 5039.12 1681.57C5044.16 1684.29 5048.04 1688.17 5050.76 1693.21C5053.56 1698.17 5054.96 1703.89 5054.96 1710.37ZM5037.56 1705.57C5037.48 1701.25 5035.92 1697.81 5032.88 1695.25C5029.84 1692.61 5026.12 1691.29 5021.72 1691.29C5017.56 1691.29 5014.04 1692.57 5011.16 1695.13C5008.36 1697.61 5006.64 1701.09 5006 1705.57H5037.56ZM5104.06 1677.61C5111.98 1677.61 5118.38 1680.13 5123.26 1685.17C5128.14 1690.13 5130.58 1697.09 5130.58 1706.05V1745.05H5113.78V1708.33C5113.78 1703.05 5112.46 1699.01 5109.82 1696.21C5107.18 1693.33 5103.58 1691.89 5099.02 1691.89C5094.38 1691.89 5090.7 1693.33 5087.98 1696.21C5085.34 1699.01 5084.02 1703.05 5084.02 1708.33V1745.05H5067.22V1678.57H5084.02V1686.85C5086.26 1683.97 5089.1 1681.73 5092.54 1680.13C5096.06 1678.45 5099.9 1677.61 5104.06 1677.61ZM5166.11 1692.37V1724.53C5166.11 1726.77 5166.63 1728.41 5167.67 1729.45C5168.79 1730.41 5170.63 1730.89 5173.19 1730.89H5180.99V1745.05H5170.43C5156.27 1745.05 5149.19 1738.17 5149.19 1724.41V1692.37H5141.27V1678.57H5149.19V1662.13H5166.11V1678.57H5180.99V1692.37H5166.11ZM5254.88 1710.37C5254.88 1712.77 5254.72 1714.93 5254.4 1716.85H5205.8C5206.2 1721.65 5207.88 1725.41 5210.84 1728.13C5213.8 1730.85 5217.44 1732.21 5221.76 1732.21C5228 1732.21 5232.44 1729.53 5235.08 1724.17H5253.2C5251.28 1730.57 5247.6 1735.85 5242.16 1740.01C5236.72 1744.09 5230.04 1746.13 5222.12 1746.13C5215.72 1746.13 5209.96 1744.73 5204.84 1741.93C5199.8 1739.05 5195.84 1735.01 5192.96 1729.81C5190.16 1724.61 5188.76 1718.61 5188.76 1711.81C5188.76 1704.93 5190.16 1698.89 5192.96 1693.69C5195.76 1688.49 5199.68 1684.49 5204.72 1681.69C5209.76 1678.89 5215.56 1677.49 5222.12 1677.49C5228.44 1677.49 5234.08 1678.85 5239.04 1681.57C5244.08 1684.29 5247.96 1688.17 5250.68 1693.21C5253.48 1698.17 5254.88 1703.89 5254.88 1710.37ZM5237.48 1705.57C5237.4 1701.25 5235.84 1697.81 5232.8 1695.25C5229.76 1692.61 5226.04 1691.29 5221.64 1691.29C5217.48 1691.29 5213.96 1692.57 5211.08 1695.13C5208.28 1697.61 5206.56 1701.09 5205.92 1705.57H5237.48ZM5283.94 1688.89C5286.1 1685.37 5288.9 1682.61 5292.34 1680.61C5295.86 1678.61 5299.86 1677.61 5304.34 1677.61V1695.25H5299.9C5294.62 1695.25 5290.62 1696.49 5287.9 1698.97C5285.26 1701.45 5283.94 1705.77 5283.94 1711.93V1745.05H5267.14V1678.57H5283.94V1688.89Z" fill="#3D81DC"/>
<rect x="3952.61" y="1579.89" width="244.737" height="257.105" rx="30" fill="#3D81DC"/>
<path d="M4104.24 1696.79H4094.26C4094.26 1692 4092.68 1687.4 4089.88 1684.01C4087.07 1680.63 4083.27 1678.72 4079.3 1678.71V1666.66C4085.91 1666.67 4092.25 1669.85 4096.93 1675.5C4101.6 1681.15 4104.23 1688.8 4104.24 1696.79Z" fill="white"/>
<path d="M4124.19 1696.79H4114.22C4114.2 1685.61 4110.52 1674.89 4103.98 1666.98C4097.43 1659.07 4088.56 1654.62 4079.3 1654.61V1642.56C4091.2 1642.58 4102.61 1648.29 4111.03 1658.46C4119.44 1668.63 4124.18 1682.41 4124.19 1696.79Z" fill="white"/>
<path d="M4114.22 1793.21H4113.37C4015.36 1786.4 4001.44 1686.49 3999.49 1656C3999.19 1651.22 4000.47 1646.49 4003.05 1642.85C4005.64 1639.21 4009.31 1636.96 4013.27 1636.59C4013.66 1636.55 4014.06 1636.53 4014.46 1636.53H4040.74C4042.74 1636.53 4044.69 1637.25 4046.35 1638.61C4048 1639.96 4049.28 1641.88 4050.02 1644.13L4057.6 1666.66C4058.33 1668.85 4058.51 1671.26 4058.12 1673.57C4057.73 1675.88 4056.79 1678.01 4055.41 1679.68L4044.78 1692.63C4046.44 1704.03 4050.95 1714.54 4057.71 1722.73C4064.48 1730.92 4073.16 1736.4 4082.59 1738.43L4093.42 1725.48C4094.82 1723.83 4096.6 1722.71 4098.52 1722.27C4100.44 1721.83 4102.43 1722.09 4104.24 1723.01L4123.04 1732.1C4124.87 1733.03 4126.43 1734.58 4127.52 1736.58C4128.62 1738.58 4129.19 1740.92 4129.18 1743.31V1775.13C4129.18 1779.92 4127.6 1784.52 4124.8 1787.91C4121.99 1791.3 4118.18 1793.21 4114.22 1793.21ZM4014.46 1648.59C4013.8 1648.58 4013.15 1648.74 4012.55 1649.04C4011.94 1649.34 4011.39 1649.78 4010.93 1650.34C4010.46 1650.9 4010.09 1651.56 4009.84 1652.29C4009.59 1653.02 4009.46 1653.8 4009.46 1654.59C4009.46 1654.76 4009.46 1654.93 4009.47 1655.09C4011.77 1690.77 4026.48 1775.13 4113.92 1781.15C4115.24 1781.25 4116.53 1780.71 4117.52 1779.65C4118.51 1778.59 4119.11 1777.1 4119.19 1775.5L4119.2 1775.13V1743.31L4100.4 1734.21L4086.08 1751.39L4083.69 1751.03C4040.3 1744.46 4034.41 1692.03 4034.41 1691.49L4034.11 1688.6L4048.28 1671.3L4040.79 1648.59H4014.46Z" fill="white"/>
</g>
<g filter="url(#filter5_d)">
<rect x="656" y="3604" width="457.25" height="400" rx="40" fill="white"/>
</g>
<g filter="url(#filter6_d)">
<rect x="670.75" y="3604" width="457.25" height="400" rx="40" fill="#EFF4FB"/>
</g>
<path d="M838.973 3732C812.744 3732 791.473 3751.99 791.473 3776.65C791.473 3796.56 799.786 3843.8 881.609 3891.56C883.075 3892.41 884.757 3892.86 886.473 3892.86C888.189 3892.86 889.871 3892.41 891.337 3891.56C973.161 3843.8 981.473 3796.56 981.473 3776.65C981.473 3751.99 960.203 3732 933.973 3732C907.744 3732 886.473 3759.06 886.473 3759.06C886.473 3759.06 865.203 3732 838.973 3732Z" stroke="#3D81DC" stroke-width="25" stroke-linecap="round" stroke-linejoin="round"/>
<defs>
<filter id="filter0_b" x="888" y="602" width="4296" height="4603" filterUnits="userSpaceOnUse" color-interpolation-filters="sRGB">
<feFlood flood-opacity="0" result="BackgroundImageFix"/>
<feGaussianBlur in="BackgroundImage" stdDeviation="2"/>
<feComposite in2="SourceAlpha" operator="in" result="effect1_backgroundBlur"/>
<feBlend mode="normal" in="SourceGraphic" in2="effect1_backgroundBlur" result="shape"/>
</filter>
<filter id="filter1_b" x="888" y="1016" width="3910" height="4189" filterUnits="userSpaceOnUse" color-interpolation-filters="sRGB">
<feFlood flood-opacity="0" result="BackgroundImageFix"/>
<feGaussianBlur in="BackgroundImage" stdDeviation="2"/>
<feComposite in2="SourceAlpha" operator="in" result="effect1_backgroundBlur"/>
<feBlend mode="normal" in="SourceGraphic" in2="effect1_backgroundBlur" result="shape"/>
</filter>
<filter id="filter2_b" x="888" y="1480" width="3477" height="3725" filterUnits="userSpaceOnUse" color-interpolation-filters="sRGB">
<feFlood flood-opacity="0" result="BackgroundImageFix"/>
<feGaussianBlur in="BackgroundImage" stdDeviation="2"/>
<feComposite in2="SourceAlpha" operator="in" result="effect1_backgroundBlur"/>
<feBlend mode="normal" in="SourceGraphic" in2="effect1_backgroundBlur" result="shape"/>
</filter>
<filter id="filter3_d" x="298" y="655" width="2195.68" height="1182.93" filterUnits="userSpaceOnUse" color-interpolation-filters="sRGB">
<feFlood flood-opacity="0" result="BackgroundImageFix"/>
<feColorMatrix in="SourceAlpha" type="matrix" values="0 0 0 0 0 0 0 0 0 0 0 0 0 0 0 0 0 0 127 0" result="hardAlpha"/>
<feMorphology radius="50" operator="dilate" in="SourceAlpha" result="effect1_dropShadow"/>
<feOffset dy="4"/>
<feGaussianBlur stdDeviation="45"/>
<feColorMatrix type="matrix" values="0 0 0 0 0 0 0 0 0 0 0 0 0 0 0 0 0 0 0.1 0"/>
<feBlend mode="normal" in2="BackgroundImageFix" result="effect1_dropShadow"/>
<feBlend mode="normal" in="SourceGraphic" in2="effect1_dropShadow" result="shape"/>
</filter>
<filter id="filter4_d" x="3789" y="1462" width="1658" height="488" filterUnits="userSpaceOnUse" color-interpolation-filters="sRGB">
<feFlood flood-opacity="0" result="BackgroundImageFix"/>
<feColorMatrix in="SourceAlpha" type="matrix" values="0 0 0 0 0 0 0 0 0 0 0 0 0 0 0 0 0 0 127 0" result="hardAlpha"/>
<feOffset dy="4"/>
<feGaussianBlur stdDeviation="2"/>
<feColorMatrix type="matrix" values="0 0 0 0 0 0 0 0 0 0 0 0 0 0 0 0 0 0 0.25 0"/>
<feBlend mode="normal" in2="BackgroundImageFix" result="effect1_dropShadow"/>
<feBlend mode="normal" in="SourceGraphic" in2="effect1_dropShadow" result="shape"/>
</filter>
<filter id="filter5_d" x="536" y="3488" width="697.25" height="640" filterUnits="userSpaceOnUse" color-interpolation-filters="sRGB">
<feFlood flood-opacity="0" result="BackgroundImageFix"/>
<feColorMatrix in="SourceAlpha" type="matrix" values="0 0 0 0 0 0 0 0 0 0 0 0 0 0 0 0 0 0 127 0" result="hardAlpha"/>
<feMorphology radius="40" operator="dilate" in="SourceAlpha" result="effect1_dropShadow"/>
<feOffset dy="4"/>
<feGaussianBlur stdDeviation="40"/>
<feColorMatrix type="matrix" values="0 0 0 0 0 0 0 0 0 0 0 0 0 0 0 0 0 0 0.25 0"/>
<feBlend mode="normal" in2="BackgroundImageFix" result="effect1_dropShadow"/>
<feBlend mode="normal" in="SourceGraphic" in2="effect1_dropShadow" result="shape"/>
</filter>
<filter id="filter6_d" x="666.75" y="3604" width="465.25" height="408" filterUnits="userSpaceOnUse" color-interpolation-filters="sRGB">
<feFlood flood-opacity="0" result="BackgroundImageFix"/>
<feColorMatrix in="SourceAlpha" type="matrix" values="0 0 0 0 0 0 0 0 0 0 0 0 0 0 0 0 0 0 127 0" result="hardAlpha"/>
<feOffset dy="4"/>
<feGaussianBlur stdDeviation="2"/>
<feColorMatrix type="matrix" values="0 0 0 0 0 0 0 0 0 0 0 0 0 0 0 0 0 0 0.25 0"/>
<feBlend mode="normal" in2="BackgroundImageFix" result="effect1_dropShadow"/>
<feBlend mode="normal" in="SourceGraphic" in2="effect1_dropShadow" result="shape"/>
</filter>
<linearGradient id="paint0_linear" x1="1395.84" y1="791" x2="1395.84" y2="2010.43" gradientUnits="userSpaceOnUse">
<stop offset="0.405022" stop-color="#F5F8FC"/>
<stop offset="1" stop-color="#DAEFFA"/>
</linearGradient>
<linearGradient id="paint1_linear" x1="4618" y1="1462" x2="4618" y2="2110.25" gradientUnits="userSpaceOnUse">
<stop offset="0.405022" stop-color="#F5F8FC"/>
<stop offset="1" stop-color="#DAEFFA"/>
</linearGradient>
<clipPath id="clip0">
<rect width="175.435" height="157.5" fill="white" transform="translate(635.09 1022.69)"/>
</clipPath>
</defs>
</svg>
